<?xml version="1.0" standalone="no"?>
<!DOCTYPE svg PUBLIC "-//W3C//DTD SVG 20010904//EN"
 "http://www.w3.org/TR/2001/REC-SVG-20010904/DTD/svg10.dtd">
<svg version="1.0" xmlns="http://www.w3.org/2000/svg"
 width="300.000000pt" height="250.000000pt" viewBox="0 0 300.000000 250.000000"
 preserveAspectRatio="xMidYMid meet">
<metadata>
Created by potrace 1.15, written by Peter Selinger 2001-2017
</metadata>
<g transform="translate(0.000000,250.000000) scale(0.100000,-0.100000)"
fill="#e0474c" stroke="none">
<path d="M0 1250 l0 -1230 1495 0 1495 0 0 1230 0 1230 -1495 0 -1495 0 0
-1230z m2860 0 l0 -1130 -1375 0 -1375 0 0 1130 0 1130 1375 0 1375 0 0 -1130z"/>
<path d="M860 1619 c0 -23 5 -32 21 -36 11 -3 25 -17 30 -30 10 -27 12 -564 2
-601 -3 -13 -16 -28 -29 -33 -18 -6 -24 -16 -24 -39 l0 -30 188 2 187 3 3 26
c2 19 -3 28 -23 37 l-25 12 0 320 0 320 26 10 c20 8 25 16 22 38 l-3 27 -187
3 -188 2 0 -31z"/>
<path d="M1264 1635 c-9 -23 3 -44 31 -55 l25 -10 0 -140 0 -140 -45 0 c-45 0
-45 0 -45 -35 0 -35 0 -35 45 -35 l45 0 0 -142 0 -143 -31 -17 c-22 -13 -30
-24 -27 -40 3 -23 3 -23 193 -23 l190 0 3 25 c2 19 -5 29 -28 42 l-30 17 0
311 0 311 30 17 c23 13 30 23 28 42 l-3 25 -188 3 c-160 2 -188 0 -193 -13z"/>
<path d="M1754 1635 c-9 -23 3 -44 31 -55 l25 -10 0 -319 0 -320 -27 -13 c-20
-9 -28 -21 -28 -38 l0 -25 190 0 190 0 3 25 c2 19 -5 29 -28 42 l-30 17 2 313
3 313 28 13 c22 11 28 19 25 40 l-3 27 -188 3 c-160 2 -188 0 -193 -13z"/>
</g>
</svg>
